<svg width="186" height="26" viewBox="0 0 186 26" fill="none" xmlns="http://www.w3.org/2000/svg">
<g id="Vector">
<path d="M19.8083 0.971429C19.8083 0.434923 19.3734 0 18.8369 0H7.48172C7.22408 0 6.977 0.102347 6.79482 0.284525L0.999367 6.08001C0.81719 6.26219 0.714844 6.50927 0.714844 6.76691V24.4867C0.714844 25.0232 1.14976 25.4581 1.68627 25.4581H6.10792C6.64442 25.4581 7.07934 25.0232 7.07934 24.4867V7.33596C7.07934 6.79946 7.51426 6.36453 8.05076 6.36453H18.8369C19.3734 6.36453 19.8083 5.92961 19.8083 5.3931V0.971429Z" fill="#042F40"/>
<path d="M16.7235 13.7005C16.7235 13.164 16.2886 12.7291 15.7521 12.7291H6.04485C5.50835 12.7291 5.07343 13.164 5.07343 13.7005L5.68257 18.1222C5.68257 18.6587 6.11749 19.0936 6.65399 19.0936H15.7521C16.2886 19.0936 16.7235 18.6587 16.7235 18.1222V13.7005Z" fill="#042F40"/>
<path d="M32.529 0.971429C32.529 0.434923 32.094 0 31.5575 0H27.1861C26.6496 0 26.2147 0.434925 26.2147 0.97143V19.0725C26.2147 19.0841 26.2053 19.0936 26.1936 19.0936C26.1819 19.0936 26.1725 19.103 26.1725 19.1147V24.4867C26.1725 25.0232 26.6074 25.4581 27.1439 25.4581H38.4991C38.7567 25.4581 39.0038 25.3558 39.186 25.1736L44.9815 19.3781C45.1636 19.1959 45.266 18.9489 45.266 18.6912V0.971429C45.266 0.434923 44.8311 0 44.2946 0H39.8729C39.3364 0 38.9015 0.434925 38.9015 0.97143V18.1222C38.9015 18.6587 38.4666 19.0936 37.9301 19.0936H33.5004C32.9639 19.0936 32.529 18.6587 32.529 18.1222V0.971429Z" fill="#042F40"/>
<path d="M51.6311 0.971429C51.6311 0.434923 52.066 0 52.6025 0H63.9577C64.2153 0 64.4624 0.102347 64.6446 0.284525L70.4401 6.08001C70.6222 6.26219 70.7246 6.50927 70.7246 6.76691V24.4867C70.7246 25.0232 70.2897 25.4581 69.7532 25.4581H65.3315C64.795 25.4581 64.3601 25.0232 64.3601 24.4867V7.33596C64.3601 6.79946 63.9252 6.36453 63.3887 6.36453H59.0002C58.4637 6.36453 58.0288 6.79946 58.0288 7.33596V24.5286C58.0288 25.0651 57.5939 25.5 57.0574 25.5H52.686C52.1495 25.5 51.7146 25.0651 51.7146 24.5286V6.40627C51.7146 6.38322 51.6959 6.36453 51.6728 6.36453C51.6498 6.36453 51.6311 6.34584 51.6311 6.32279V0.971429Z" fill="#042F40"/>
<path d="M166.192 0.971429C166.192 0.434923 166.627 0 167.163 0H178.518C178.776 0 179.023 0.102347 179.205 0.284525L185.001 6.08001C185.183 6.26219 185.285 6.50927 185.285 6.76691V24.4867C185.285 25.0232 184.85 25.4581 184.314 25.4581H179.892C179.356 25.4581 178.921 25.0232 178.921 24.4867V7.33596C178.921 6.79946 178.486 6.36453 177.949 6.36453H173.628C173.092 6.36453 172.657 6.79946 172.657 7.33596V24.5286C172.657 25.0651 172.222 25.5 171.685 25.5H167.071C166.535 25.5 166.1 25.0651 166.1 24.5286V6.11744C166.1 6.09203 166.12 6.07143 166.146 6.07143C166.171 6.07143 166.192 6.05083 166.192 6.02542V0.971429Z" fill="#042F40"/>
<path d="M83.1687 0.284525C83.3509 0.102347 83.598 0 83.8556 0H95.2108C95.7473 0 96.1822 0.434923 96.1822 0.971428V5.3931C96.1822 5.92961 95.7473 6.36453 95.2108 6.36453H84.4247C83.8882 6.36453 83.4532 6.79946 83.4532 7.33596V18.1222C83.4532 18.6587 83.8882 19.0936 84.4247 19.0936H95.2108C95.7473 19.0936 96.1822 19.5285 96.1822 20.065V24.4867C96.1822 25.0232 95.7473 25.4581 95.2108 25.4581H83.8556C83.598 25.4581 83.3509 25.3558 83.1687 25.1736L77.3733 19.3781C77.1911 19.1959 77.0887 18.9489 77.0887 18.6912V6.76691C77.0887 6.50927 77.1911 6.26219 77.3733 6.08001L83.1687 0.284525Z" fill="#042F40"/>
<path d="M121.64 0.971429C121.64 0.434923 121.205 0 120.669 0H103.518C102.982 0 102.547 0.434923 102.547 0.971428V5.3931C102.547 5.92961 102.982 6.36453 103.518 6.36453H108.057C108.594 6.36453 109.029 6.79946 109.029 7.33596V24.5286C109.029 25.0651 109.463 25.5 110 25.5H114.371C114.908 25.5 115.343 25.0651 115.343 24.5286V7.33596C115.343 6.79946 115.778 6.36453 116.314 6.36453H120.669C121.205 6.36453 121.64 5.92961 121.64 5.3931V0.971429Z" fill="#042F40"/>
<path d="M128.005 0.971428C128.005 0.434923 128.44 0 128.976 0H133.398C133.935 0 134.369 0.434923 134.369 0.971429V24.4867C134.369 25.0232 133.935 25.4581 133.398 25.4581H128.976C128.44 25.4581 128.005 25.0232 128.005 24.4867V0.971428Z" fill="#042F40"/>
<path fill-rule="evenodd" clip-rule="evenodd" d="M146.814 0.284525C146.996 0.102347 147.243 0 147.501 0H158.856C159.393 0 159.828 0.434923 159.828 0.971428V18.6912C159.828 18.9489 159.725 19.1959 159.543 19.3781L153.748 25.1736C153.565 25.3558 153.318 25.4581 153.061 25.4581L141.705 25.4581C141.169 25.4581 140.734 25.0232 140.734 24.4867V6.76691C140.734 6.50927 140.836 6.26219 141.019 6.08001L146.814 0.284525ZM148.07 6.36453C147.533 6.36453 147.099 6.79946 147.099 7.33596V18.1222C147.099 18.6587 147.533 19.0936 148.07 19.0936H152.492C153.028 19.0936 153.463 18.6587 153.463 18.1222V7.33596C153.463 6.79946 153.028 6.36453 152.492 6.36453L148.07 6.36453Z" fill="#042F40"/>
</g>
</svg>
